<svg xmlns="http://www.w3.org/2000/svg" aria-hidden="true" role="img" class="iconify iconify--logos" viewBox="0 0 64 64" width="64" height="64">
  <!-- White Circular Background -->
  <circle cx="32" cy="32" r="32" fill="white"/>
  
  <!-- Puppy Paw Prints (behind the B) - Medium-sized and Purple -->
  <g fill="#8A2BE2" transform="translate(4, 42) scale(0.25) rotate(-10)">
    <!-- Bottom paw pad -->
    <circle cx="40" cy="40" r="22"/>

    <!-- Toe pads -->
    <circle cx="20" cy="10" r="9"/>
    <circle cx="40" cy="4" r="11"/>
    <circle cx="60" cy="10" r="11"/>
    <circle cx="75" cy="30" r="9"/>
  </g>
  
  <g fill="#8A2BE2" transform="translate(27, 30) scale(0.25) rotate(7)">
    <!-- Paw pad middle -->
    <circle cx="40" cy="40" r="22"/>
    
    <!-- Toe pads -->
    <circle cx="20" cy="10" r="9"/>
    <circle cx="40" cy="4" r="11"/>
    <circle cx="60" cy="10" r="11"/>
    <circle cx="75" cy="30" r="9"/>
  </g>
  
  <g fill="#8A2BE2" transform="translate(10, 19) scale(0.25) rotate(-7)">
    <!-- Top paw pad -->
    <circle cx="40" cy="40" r="22"/>
    
    <!-- Toe pads -->
    <circle cx="20" cy="10" r="9"/>
    <circle cx="40" cy="4" r="11"/>
    <circle cx="60" cy="10" r="11"/>
    <circle cx="75" cy="30" r="9"/>
  </g>
  
  <g fill="#8A2BE2" transform="translate(37, 10) scale(0.25) rotate(9)">
    <!-- Top paw pad -->
    <circle cx="40" cy="40" r="22"/>
    
    <!-- Toe pads -->
    <circle cx="20" cy="10" r="9"/>
    <circle cx="40" cy="4" r="11"/>
    <circle cx="60" cy="10" r="11"/>
    <circle cx="75" cy="30" r="9"/>
  </g>
</svg>
